<svg xmlns="http://www.w3.org/2000/svg" viewBox="0 0 123.6 123.6"><path d="M61.8 0C27.7 0 0 27.7 0 61.8c0 34.1 27.7 61.8 61.8 61.8 34.1 0 61.8-27.7 61.8-61.8C123.6 27.7 96 0 61.8 0zm0 117.6C31 117.6 6 92.6 6 61.8 6 31 31 6 61.8 6c30.8 0 55.8 25 55.8 55.8 0 30.8-25 55.8-55.8 55.8z"/><path d="M81.9 84.7l-5.7-12.5c-.7-1.4-1.3-2.7-2-3.9-.7-1.1-1.3-2.2-2.1-3-.7-.9-1.5-1.6-2.4-2.3-.8-.6-1.8-1.1-2.8-1.6 1.9-.6 3.5-1.3 5.1-2.2 1.5-.8 2.8-1.9 3.9-3a12.83 12.83 0 003.4-9.1c0-2-.3-3.8-1-5.4-.6-1.6-1.6-3.1-2.9-4.3-1.3-1.3-2.9-2.3-4.7-3.1-1.9-.8-4-1.4-6.5-1.8-.9-.1-1.8-.2-2.9-.2-1.1-.1-2.4-.1-4-.1H43.8c-.8 0-1.5.2-2.1.7-.7.5-1 1.3-1 2.4v52.6c0 .2.1.4.2.6.1.2.4.3.7.4.3.1.8.2 1.3.3.5.1 1.2.1 2 .1s1.5 0 2-.1 1-.2 1.3-.3c.3-.1.5-.2.7-.4s.2-.4.2-.6V63.7h5.6c1.9 0 3.6.3 5 .8s2.6 1.2 3.6 2.2c1 .9 1.9 2 2.6 3.3.7 1.3 1.4 2.7 2.1 4.2l5.8 13.4c.1.4.3.6.5.9.2.2.4.4.8.5.3.1.8.2 1.3.3.5.1 1.2.1 2.1.1 1 0 1.8 0 2.4-.1.6-.1 1-.1 1.4-.3s.5-.3.6-.4.1-.4.1-.6-.1-.6-.2-1c-.2-.5-.5-1.3-.9-2.3zM63.1 56.8c-1.6.5-3.5.7-5.8.7h-8.2V38.4h7.1c1.7 0 3 0 4 .1s2 .2 2.8.4c2.6.7 4.5 1.8 5.6 3.3a9.3 9.3 0 011.7 5.6c0 1.4-.3 2.7-.8 3.8a7.9 7.9 0 01-2.4 3.1c-1 1-2.4 1.6-4 2.1zM96.4 78.2c-1.8 0-3.1.3-3.8 1s-1 2.1-1 4.2c0 2 .3 3.4 1 4s1.9 1 3.6 1c1.8 0 3.1-.3 3.8-1 .7-.7 1-2.1 1-4.2 0-2-.3-3.4-1-4s-1.9-1-3.6-1z"/></svg>